<svg width="176" height="75" viewBox="0 0 176 75" fill="none" xmlns="http://www.w3.org/2000/svg">
<rect width="175.35" height="74.2525" rx="12" fill="white"/>
<rect width="51.5079" height="49.993" transform="translate(20.2996 12)" fill="white"/>
<path d="M31.2689 14.4786C34.4279 11.2344 39.6185 11.1654 42.8627 14.3243C44.7464 16.1586 45.557 18.6772 45.2894 21.1027C45.5006 22.3516 46.2068 25.2279 48.3881 26.9259C50.049 28.2188 52.2523 28.6276 53.6195 28.755C55.8279 28.4807 58.1077 29.1705 59.9828 30.9962C63.448 34.3704 63.6468 39.787 60.4261 43.0948C58.8514 44.7121 56.7505 45.5233 54.6097 45.5382C52.4806 46.1879 49.5649 47.1758 48.3881 48.0402C46.4322 49.4769 45.4969 52.7351 45.097 54.6876C45.0583 56.7919 44.2153 58.8811 42.5765 60.4532C39.309 63.588 34.1186 63.4805 30.9838 60.213C27.849 56.9455 27.9566 51.7551 31.224 48.6202C32.3896 47.502 33.8004 46.7979 35.2748 46.5011L35.2719 46.4982C35.2737 46.4981 35.2833 46.4969 35.3002 46.4962C35.8298 46.3913 36.3672 46.3396 36.9047 46.34C38.6945 46.0906 41.5334 45.4547 43.2094 43.8468C44.7363 42.3819 45.5199 39.8972 45.9076 38.1085C45.852 37.521 45.865 36.9296 45.9476 36.3429C45.834 35.3295 45.3611 32.8683 43.3744 30.9337C41.7108 29.3139 38.8772 28.6574 37.0892 28.3947C36.5522 28.3912 36.0161 28.3342 35.4877 28.2257C35.4667 28.2247 35.4554 28.2247 35.4554 28.2247L35.4594 28.2208C33.9869 27.9132 32.5808 27.1995 31.4232 26.0724C28.1792 22.9135 28.1102 17.7228 31.2689 14.4786ZM31.5277 33.5128C33.7366 31.2444 37.3666 31.1957 39.6351 33.4044C41.9036 35.6133 41.9522 39.2433 39.7435 41.5118C37.5346 43.7803 33.9046 43.8282 31.6361 41.6193C29.3679 39.4104 29.3192 35.7813 31.5277 33.5128Z" fill="black"/>
<path d="M77.4743 41.6221V31.395H75.6957V29.1484H77.4743V27.9431C77.4743 27.1318 77.6069 26.4609 77.8722 25.9305C78.1452 25.4 78.5665 25.0061 79.1359 24.7486C79.7132 24.4834 80.4543 24.3508 81.3592 24.3508C81.6556 24.3508 81.9443 24.3625 82.2251 24.3859C82.5059 24.4093 82.74 24.4366 82.9272 24.4678V26.5039C82.8102 26.4883 82.6697 26.4766 82.5059 26.4688C82.3499 26.4609 82.19 26.457 82.0262 26.457C81.4411 26.457 81.0081 26.5897 80.7273 26.8549C80.4543 27.1201 80.3178 27.518 80.3178 28.0484V29.1484H82.8687V31.395H80.3763V41.6221H77.4743ZM88.6207 41.8678C87.708 41.8678 86.9318 41.6845 86.2921 41.3178C85.6524 40.9434 85.1649 40.409 84.8294 39.7147C84.494 39.0127 84.3263 38.178 84.3263 37.2106V29.1484H87.2399V36.6139C87.2399 37.5188 87.4427 38.2131 87.8484 38.6967C88.2618 39.1804 88.8859 39.4222 89.7206 39.4222C90.1497 39.4222 90.5358 39.352 90.8791 39.2116C91.2223 39.0634 91.5148 38.8566 91.7567 38.5914C91.9985 38.3184 92.1818 37.9985 92.3066 37.6319C92.4314 37.2574 92.4939 36.8401 92.4939 36.3798V29.1484H95.4075V41.6221H92.4939V39.6796H92.4119C92.2013 40.1243 91.9166 40.5104 91.5577 40.8381C91.2067 41.1657 90.7854 41.4192 90.294 41.5987C89.8103 41.7781 89.2526 41.8678 88.6207 41.8678ZM102.318 41.8678C101.234 41.8678 100.305 41.7079 99.533 41.388C98.7685 41.0682 98.164 40.6236 97.7193 40.0541C97.2825 39.4768 97.0211 38.8098 96.9353 38.0531L96.9236 37.9595H99.7905L99.8139 38.0531C99.9309 38.5758 100.196 38.9854 100.61 39.2818C101.023 39.5704 101.596 39.7147 102.33 39.7147C102.813 39.7147 103.227 39.6562 103.57 39.5392C103.913 39.4144 104.178 39.2389 104.366 39.0127C104.553 38.7864 104.647 38.5173 104.647 38.2053V38.1936C104.647 37.8191 104.514 37.5188 104.249 37.2926C103.991 37.0585 103.535 36.8674 102.88 36.7192L100.82 36.2511C100.024 36.0795 99.3614 35.8377 98.8309 35.5256C98.3005 35.2058 97.9026 34.8119 97.6374 34.3438C97.38 33.8757 97.2512 33.3375 97.2512 32.729V32.7173C97.2512 31.9528 97.458 31.2858 97.8714 30.7164C98.2849 30.1391 98.866 29.6905 99.6149 29.3707C100.372 29.0509 101.245 28.8909 102.236 28.8909C103.274 28.8909 104.159 29.0626 104.892 29.4058C105.626 29.7412 106.195 30.1937 106.601 30.7632C107.006 31.3326 107.229 31.9723 107.268 32.6822L107.279 32.7992H104.565L104.553 32.7173C104.483 32.2336 104.249 31.8358 103.851 31.5238C103.461 31.2039 102.923 31.044 102.236 31.044C101.807 31.044 101.433 31.1064 101.113 31.2312C100.801 31.356 100.555 31.5316 100.376 31.7578C100.204 31.984 100.118 32.2531 100.118 32.5652V32.5769C100.118 32.8109 100.177 33.0215 100.294 33.2088C100.411 33.396 100.602 33.5598 100.867 33.7002C101.132 33.8406 101.483 33.9616 101.92 34.063L103.98 34.5193C105.259 34.8002 106.176 35.2097 106.729 35.748C107.291 36.2862 107.572 37.0117 107.572 37.9244V37.9361C107.572 38.7162 107.346 39.4027 106.893 39.9956C106.441 40.5884 105.821 41.0487 105.033 41.3763C104.245 41.704 103.34 41.8678 102.318 41.8678ZM108.795 45.7644V28.6569H113.593V30.927H113.722C113.925 30.3965 114.205 29.9441 114.564 29.5696C114.923 29.1874 115.352 28.8987 115.851 28.7037C116.351 28.5009 116.908 28.3995 117.525 28.3995C118.609 28.3995 119.526 28.6608 120.275 29.1835C121.031 29.6983 121.608 30.4589 122.006 31.4653C122.404 32.4638 122.603 33.6846 122.603 35.1278V35.1395C122.603 36.5827 122.408 37.8074 122.018 38.8137C121.636 39.8123 121.066 40.5767 120.31 41.1072C119.561 41.6299 118.648 41.8912 117.572 41.8912C116.947 41.8912 116.382 41.7898 115.875 41.587C115.368 41.3841 114.931 41.0994 114.564 40.7328C114.198 40.3661 113.913 39.9254 113.71 39.4105H113.593V45.7644H108.795ZM115.664 38.0297C116.085 38.0297 116.452 37.9127 116.764 37.6787C117.076 37.4447 117.314 37.1131 117.478 36.6841C117.65 36.2472 117.735 35.7324 117.735 35.1395V35.1278C117.735 34.5271 117.65 34.0123 117.478 33.5832C117.306 33.1542 117.064 32.8265 116.752 32.6003C116.44 32.3741 116.078 32.2609 115.664 32.2609C115.243 32.2609 114.872 32.3741 114.553 32.6003C114.241 32.8265 113.999 33.1542 113.827 33.5832C113.655 34.0123 113.57 34.531 113.57 35.1395V35.1512C113.57 35.7519 113.655 36.2667 113.827 36.6958C113.999 37.1248 114.241 37.4564 114.553 37.6904C114.865 37.9166 115.235 38.0297 115.664 38.0297ZM127.583 41.7859C126.725 41.7859 125.968 41.6182 125.313 41.2827C124.657 40.9395 124.147 40.4714 123.78 39.8786C123.413 39.2857 123.23 38.6148 123.23 37.8659V37.8542C123.23 37.0273 123.437 36.3252 123.85 35.748C124.271 35.1707 124.88 34.7182 125.676 34.3906C126.479 34.0552 127.454 33.8484 128.601 33.7704L133.82 33.4311V36.0756L129.397 36.3915C128.889 36.4227 128.511 36.5359 128.262 36.7309C128.02 36.9259 127.899 37.1833 127.899 37.5032V37.5149C127.899 37.8503 128.031 38.1116 128.297 38.2989C128.562 38.4783 128.917 38.568 129.361 38.568C129.744 38.568 130.079 38.5017 130.368 38.3691C130.656 38.2365 130.883 38.057 131.046 37.8308C131.21 37.6046 131.292 37.3472 131.292 37.0585V32.9981C131.292 32.6237 131.167 32.3312 130.918 32.1205C130.676 31.9099 130.313 31.8046 129.83 31.8046C129.338 31.8046 128.952 31.8943 128.671 32.0737C128.398 32.2531 128.23 32.4755 128.168 32.7407L128.145 32.846H123.862L123.873 32.6939C123.944 31.8202 124.232 31.0596 124.739 30.4121C125.246 29.7646 125.952 29.2654 126.857 28.9143C127.762 28.5555 128.843 28.3761 130.099 28.3761C131.308 28.3761 132.361 28.5594 133.258 28.926C134.155 29.2927 134.849 29.8076 135.341 30.4706C135.832 31.1337 136.078 31.9099 136.078 32.7992V41.6221H131.292V39.902H131.175C130.949 40.2998 130.66 40.6431 130.309 40.9317C129.966 41.2125 129.564 41.427 129.104 41.5753C128.644 41.7157 128.137 41.7859 127.583 41.7859ZM140.016 45.8814C139.587 45.8814 139.174 45.8619 138.776 45.8229C138.386 45.7917 138.054 45.7566 137.781 45.7176V42.2891C137.93 42.3203 138.132 42.3476 138.39 42.371C138.647 42.4022 138.948 42.4178 139.291 42.4178C139.712 42.4178 140.04 42.3515 140.274 42.2188C140.516 42.094 140.656 41.9458 140.695 41.7742L140.742 41.6221L136.389 28.6569H141.713L143.89 39.0829L143.363 38.0765H144.112L143.597 39.0829L145.762 28.6569H150.828L146.979 41.2242C146.604 42.4412 146.093 43.389 145.446 44.0677C144.806 44.7463 144.034 45.2183 143.129 45.4835C142.232 45.7488 141.194 45.8814 140.016 45.8814Z" fill="black"/>
</svg>
