<svg width="303" height="70" viewBox="0 0 303 70" fill="none" xmlns="http://www.w3.org/2000/svg">
<path d="M97.15 56.55C94.95 56.55 93.0667 56.1667 91.5 55.4C89.9333 54.6 88.6667 53.5667 87.7 52.3C86.7333 51 86.0167 49.6 85.55 48.1C85.0833 46.5667 84.85 45.0667 84.85 43.6C84.85 41.7667 85.0667 40.0667 85.5 38.5C85.9667 36.9333 86.6833 35.5667 87.65 34.4C88.6167 33.2 89.8833 32.2667 91.45 31.6C93.0167 30.9333 94.9167 30.6 97.15 30.6C99.7167 30.6 101.983 31.15 103.95 32.25C105.95 33.3167 107.517 34.8167 108.65 36.75C109.817 38.6833 110.4 40.9667 110.4 43.6C110.4 46.1667 109.817 48.4333 108.65 50.4C107.483 52.3333 105.9 53.85 103.9 54.95C101.9 56.0167 99.65 56.55 97.15 56.55ZM95.05 51.55C96.8167 51.55 98.35 51.2167 99.65 50.55C100.95 49.8833 101.95 48.9667 102.65 47.8C103.383 46.6 103.75 45.2 103.75 43.6C103.75 41.2 102.983 39.2667 101.45 37.8C99.95 36.3333 97.8167 35.6 95.05 35.6C93.1167 35.6 91.4333 35.9167 90 36.55C88.5667 37.1833 87.45 38.1 86.65 39.3C85.8833 40.4667 85.5 41.9 85.5 43.6C85.5 45.1667 85.8833 46.55 86.65 47.75C87.4167 48.95 88.5167 49.8833 89.95 50.55C91.3833 51.2167 93.0833 51.55 95.05 51.55ZM85.5 21.15V49.6C85.5 50.6667 85.45 51.8167 85.35 53.05C85.25 54.25 85.15 55.2333 85.05 56H79V21.15H85.5ZM127.307 56.55C124.84 56.55 122.59 56.0167 120.557 54.95C118.557 53.85 116.957 52.3333 115.757 50.4C114.59 48.4333 114.007 46.1667 114.007 43.6C114.007 40.9667 114.607 38.6833 115.807 36.75C117.007 34.8167 118.624 33.3167 120.657 32.25C122.724 31.15 125.057 30.6 127.657 30.6C130.524 30.6 132.824 31.1833 134.557 32.35C136.324 33.4833 137.607 35.0333 138.407 37C139.207 38.9667 139.607 41.1667 139.607 43.6C139.607 45.0667 139.374 46.5667 138.907 48.1C138.44 49.6 137.724 51 136.757 52.3C135.79 53.5667 134.524 54.6 132.957 55.4C131.39 56.1667 129.507 56.55 127.307 56.55ZM129.407 51.55C131.374 51.55 133.074 51.2167 134.507 50.55C135.94 49.8833 137.04 48.95 137.807 47.75C138.574 46.55 138.957 45.1667 138.957 43.6C138.957 41.9 138.557 40.4667 137.757 39.3C136.99 38.1 135.89 37.2 134.457 36.6C133.057 35.9667 131.374 35.65 129.407 35.65C126.64 35.65 124.49 36.3833 122.957 37.85C121.424 39.2833 120.657 41.2 120.657 43.6C120.657 45.2 121.024 46.6 121.757 47.8C122.49 48.9667 123.507 49.8833 124.807 50.55C126.14 51.2167 127.674 51.55 129.407 51.55ZM138.957 31.15H145.457V56H139.407C139.407 56 139.357 55.6833 139.257 55.05C139.19 54.3833 139.124 53.55 139.057 52.55C138.99 51.55 138.957 50.5667 138.957 49.6V31.15ZM151.34 31.15H157.84V56H151.34V31.15ZM169.39 30.6C170.923 30.6 172.34 30.8 173.64 31.2C174.94 31.6 176.073 32.2167 177.04 33.05C178.007 33.8833 178.757 34.95 179.29 36.25C179.823 37.5167 180.09 39.0333 180.09 40.8V56H173.59V41.95C173.59 39.85 173.073 38.3167 172.04 37.35C171.04 36.35 169.39 35.85 167.09 35.85C165.357 35.85 163.79 36.1833 162.39 36.85C160.99 37.5167 159.857 38.3667 158.99 39.4C158.123 40.4 157.623 41.45 157.49 42.55L157.44 40C157.607 38.8333 157.99 37.7 158.59 36.6C159.19 35.5 159.99 34.5 160.99 33.6C162.023 32.6667 163.24 31.9333 164.64 31.4C166.04 30.8667 167.623 30.6 169.39 30.6ZM186.458 21.15H192.958V56H186.458V21.15ZM213.908 31.15L199.108 44.2L199.258 40.2L215.058 56H206.808L193.108 42.05L205.058 31.15H213.908ZM225.929 20.25V25.95H218.379V20.25H225.929ZM218.879 31.15H225.379V56H218.879V31.15ZM254.857 56V29.8L261.357 30.6V56H254.857ZM264.457 21.15H269.607V26.4H266.007C265.041 26.3667 264.207 26.4667 263.507 26.7C262.807 26.9333 262.274 27.3667 261.907 28C261.541 28.6 261.357 29.4667 261.357 30.6L254.857 29.8C254.857 27.8 255.224 26.1667 255.957 24.9C256.691 23.6 257.774 22.65 259.207 22.05C260.641 21.45 262.391 21.15 264.457 21.15ZM235.457 56V30.5L241.957 31.3V56H235.457ZM245.057 21.85H250.257V27.1H246.607C245.641 27.0667 244.807 27.1667 244.107 27.4C243.407 27.6333 242.874 28.05 242.507 28.65C242.141 29.25 241.957 30.1333 241.957 31.3L235.457 30.5C235.457 28.5 235.824 26.8667 236.557 25.6C237.291 24.3 238.374 23.35 239.807 22.75C241.241 22.15 242.991 21.85 245.057 21.85ZM230.107 31.6H269.557V36.55H230.107V31.6ZM271.063 31.15H277.963L288.713 55L283.113 56L271.063 31.15ZM301.463 31.15L284.263 66H277.513L284.863 52.3L294.513 31.15H301.463Z" fill="white"/>
<path d="M62.6484 25.9548L53.5315 42.6566C53.0658 43.5186 53.815 44.5272 54.7506 44.3642L58.8338 43.6454C59.4709 43.5515 60.082 43.9624 60.1758 44.6L61.1255 49.9216C61.2193 50.5592 60.8086 51.1709 60.1716 51.2648L41.4145 54.5645C40.4369 54.7253 40.1221 55.9325 40.8465 56.6024L43.952 59.3347C44.435 59.7813 44.4824 60.5009 44.0361 60.9842L40.4574 65.0193C40.0112 65.5026 39.2922 65.5502 38.8093 65.1036L24.5772 52.4785C23.8529 51.8087 22.6898 52.2975 22.6381 53.3073L22.4247 57.4725C22.3923 58.1036 21.8598 58.6248 21.1872 58.5903L15.8062 58.3146C15.1756 58.2823 14.6549 57.7494 14.6894 57.0763L15.6637 38.059C15.7133 37.0913 14.6062 36.4862 13.8194 37.0365L10.4509 39.4371C9.92483 39.832 9.21447 39.7112 8.81994 39.1848L5.67234 34.8052C5.27782 34.2787 5.39854 33.5678 5.92457 33.1729L21.3723 22.0684C22.1613 21.4761 21.9716 20.243 21.0155 19.9831L17.0271 18.8507C16.403 18.6922 16.057 18.0417 16.2154 17.4171L17.704 12.2203C17.8625 11.5957 18.5124 11.2493 19.1366 11.4079L37.4582 16.6071C38.4143 16.867 39.2206 15.9381 38.8455 15.033L37.2296 11.1958C36.9655 10.5917 37.2523 9.93148 37.8559 9.66711L42.8532 7.56082C43.4568 7.29646 44.1165 7.58336 44.3806 8.18747L51.743 25.7335C52.1181 26.6386 53.3793 26.7032 53.845 25.8412L55.8445 22.1893C56.169 21.6153 56.8545 21.3974 57.428 21.722L62.1838 24.328C62.7552 24.6947 62.9309 25.3787 62.6484 25.9548ZM45.1159 30.0343L41.1361 20.5077C40.7254 19.4743 39.2454 19.5672 38.9372 20.6482L38.0673 23.6408C37.9088 24.2655 37.2589 24.6119 36.6347 24.4533L26.7059 21.6245C25.6258 21.3161 24.8044 22.5395 25.4339 23.4155L27.2427 25.9548C27.6373 26.4812 27.5165 27.1922 26.9905 27.5871L18.5892 33.6108C17.6719 34.2388 18.1031 35.6951 19.1961 35.7511L22.307 35.9105C22.9376 35.9428 23.4582 36.4757 23.4237 37.1488L22.8956 47.4569C22.8396 48.5508 24.201 49.1267 24.961 48.2798L27.0597 45.9828C27.5059 45.4995 28.2249 45.452 28.7078 45.8985L36.4097 52.7051C37.258 53.4235 38.516 52.7286 38.3198 51.6218L37.7603 48.5559C37.6665 47.9183 38.0772 47.3066 38.7143 47.2127L48.8802 45.4134C49.9862 45.2169 50.2298 43.753 49.2445 43.2385L46.4969 41.7478C45.9234 41.4231 45.7057 40.737 46.0301 40.1631L50.9626 31.0931C51.4768 30.1071 50.5218 29.0035 49.4869 29.4567L46.6013 30.6588C46.0419 30.8832 45.38 30.6384 45.1159 30.0343Z" fill="url(#paint0_linear_133_372)"/>
<path d="M31.5 29.8346C32.3284 29.8346 33 30.5061 33 31.3346V31.9605C33.3196 31.8783 33.6547 31.8346 34 31.8346C36.2091 31.8346 38 33.6254 38 35.8346C38 38.0437 36.2091 39.8346 34 39.8346C31.7909 39.8346 30 38.0437 30 35.8346C30 35.7294 30.0047 35.6252 30.0127 35.5221C30.005 35.4606 30 35.3981 30 35.3346V31.3346C30 30.5061 30.6716 29.8346 31.5 29.8346Z" fill="url(#paint1_linear_133_372)"/>
<defs>
<linearGradient id="paint0_linear_133_372" x1="7.03336" y1="27.698" x2="75.249" y2="40.3111" gradientUnits="userSpaceOnUse">
<stop stop-color="#0147FF"/>
<stop offset="1" stop-color="#0147FF" stop-opacity="0"/>
</linearGradient>
<linearGradient id="paint1_linear_133_372" x1="36.5" y1="33.8346" x2="25" y2="34.3346" gradientUnits="userSpaceOnUse">
<stop stop-color="#0147FF"/>
<stop offset="1" stop-color="#012B99" stop-opacity="0.1"/>
</linearGradient>
</defs>
</svg>
